<svg width="22" height="20" viewBox="0 0 22 20" fill="none" xmlns="http://www.w3.org/2000/svg">
<path fill-rule="evenodd" clip-rule="evenodd" d="M0 3.75C0 1.67893 1.67893 0 3.75 0H12.5C13.1904 0 13.75 0.559644 13.75 1.25C13.75 1.94036 13.1904 2.5 12.5 2.5H3.75C3.05964 2.5 2.5 3.05964 2.5 3.75V16.25C2.5 16.9404 3.05964 17.5 3.75 17.5H16.25C16.9404 17.5 17.5 16.9404 17.5 16.25V11.25C17.5 10.5596 18.0596 10 18.75 10C19.4404 10 20 10.5596 20 11.25V16.25C20 18.3211 18.3211 20 16.25 20H3.75C1.67893 20 0 18.3211 0 16.25V3.75Z" fill="#2F3043"/>
<path d="M21.3387 1.05325C20.7677 0.482252 19.8419 0.482252 19.2709 1.05325L10.1374 10.1868L8.121 8.17047C7.55 7.59948 6.62424 7.59948 6.05325 8.17047C5.48225 8.74146 5.48225 9.66723 6.05325 10.2382L9.10348 13.2885C9.67448 13.8595 10.6002 13.8595 11.1712 13.2885L21.3387 3.121C21.9097 2.55 21.9097 1.62424 21.3387 1.05325Z" fill="#F28A24"/>
</svg>
