<svg width="20" height="20" viewBox="0 0 20 20" fill="none" xmlns="http://www.w3.org/2000/svg">
<path d="M6.6665 14.166L9.99984 17.4993L13.3332 14.166" stroke="#2A5169" stroke-width="1.5" stroke-linecap="round" stroke-linejoin="round"/>
<path d="M9.99756 9.99609V16.9961" stroke="#2A5169" stroke-width="1.5" stroke-linecap="round" stroke-linejoin="round"/>
<path d="M17.2608 14.9961C17.9717 14.5103 18.5049 13.817 18.7828 13.0168C19.0608 12.2166 19.0691 11.3512 18.8066 10.5461C18.5441 9.74101 18.0245 9.03814 17.323 8.5395C16.6216 8.04085 15.7749 7.77238 14.9058 7.77304H13.8755C13.6296 6.84165 13.1694 5.97661 12.5297 5.24305C11.89 4.50949 11.0873 3.92652 10.1821 3.53803C9.277 3.14953 8.29295 2.96564 7.30409 3.0002C6.31523 3.03476 5.34731 3.28686 4.47322 3.73753C3.59913 4.1882 2.84164 4.82569 2.25777 5.60202C1.67389 6.37834 1.27886 7.27327 1.10241 8.21942C0.925957 9.16557 0.972681 10.1383 1.23906 11.0644C1.50545 11.9904 1.98455 12.8457 2.6403 13.5658" stroke="#2A5169" stroke-width="1.5" stroke-linecap="round" stroke-linejoin="round"/>
</svg>
