<svg width="40" height="40" viewBox="0 0 40 40" fill="none" xmlns="http://www.w3.org/2000/svg">
<path d="M25.7344 22.3662L17.641 14.2726C17.3497 13.9815 16.9877 13.7713 16.5905 13.6625C16.1934 13.5537 15.7748 13.5501 15.3758 13.652L7.98316 15.5869C7.47309 15.7173 7.02178 16.0156 6.702 16.4339C6.38223 16.8521 6.21263 17.3659 6.22054 17.8923C6.26636 23.7045 5.20698 29.4724 3.09879 34.889C2.99388 35.17 2.97198 35.4753 3.03571 35.7685C3.09943 36.0616 3.24609 36.3302 3.45821 36.5424C3.67032 36.7545 3.93895 36.9011 4.23209 36.9649C4.52522 37.0286 4.83049 37.0067 5.11153 36.9018C10.5284 34.796 16.2962 33.739 22.1077 33.787C22.6341 33.7949 23.1479 33.6253 23.5661 33.3056C23.9843 32.9858 24.2827 32.5345 24.4131 32.0244L26.355 24.6315C26.4569 24.2325 26.4533 23.8139 26.3445 23.4167C26.2357 23.0196 26.0255 22.6576 25.7344 22.3662ZM18.4032 27.2036C17.8494 27.7573 17.1439 28.1345 16.3759 28.2872C15.6078 28.44 14.8117 28.3616 14.0882 28.062C13.3647 27.7623 12.7463 27.2548 12.3113 26.6036C11.8762 25.9525 11.644 25.1869 11.644 24.4038C11.644 23.6207 11.8762 22.8551 12.3113 22.204C12.7463 21.5529 13.3647 21.0454 14.0882 20.7457C14.8117 20.446 15.6078 20.3676 16.3759 20.5204C17.1439 20.6732 17.8494 21.0503 18.4032 21.6041C19.1445 22.3472 19.5608 23.3541 19.5608 24.4038C19.5608 25.4535 19.1445 26.4604 18.4032 27.2036Z" fill="#002353"/>
<path d="M35.3377 14.1225L25.8838 4.66829C24.9625 3.74692 23.4687 3.74692 22.5473 4.66829L19.1842 8.03155C18.2628 8.95292 18.2628 10.4467 19.1842 11.3681L28.6381 20.8223C29.5594 21.7437 31.0532 21.7437 31.9745 20.8223L35.3377 17.459C36.2591 16.5377 36.2591 15.0438 35.3377 14.1225Z" fill="#84A5B9"/>
</svg>
