<svg width="40" height="40" viewBox="0 0 40 40" fill="none" xmlns="http://www.w3.org/2000/svg">
<path d="M20.9375 18.7334V34.999L33.8631 29.222C34.5534 28.9272 35.0002 28.2488 35.0002 27.499V12.4989C35.0002 12.4939 34.998 12.4894 34.998 12.4844L20.9375 18.7334Z" fill="#002353"/>
<path d="M20.7381 5.15244C20.2694 4.94919 19.731 4.94919 19.2623 5.15244C19.2623 5.15244 6.03812 10.8419 5.9856 10.8706L20.0002 17.0992L34.0148 10.8706C33.9623 10.8419 20.7381 5.15244 20.7381 5.15244Z" fill="#84A5B9"/>
<path d="M5 12.4989V27.499C5 28.2488 5.44678 28.9272 6.1371 29.222L19.0627 34.999V18.7334L5.00217 12.4844C5.00217 12.4894 5 12.4939 5 12.4989Z" fill="#002353"/>
</svg>
