<svg width="40" height="40" viewBox="0 0 40 40" fill="none" xmlns="http://www.w3.org/2000/svg">
<path d="M36 20V32.8C36 33.6487 35.6629 34.4626 35.0627 35.0627C34.4626 35.6629 33.6487 36 32.8 36H20C19.1513 36 18.3374 35.6629 17.7373 35.0627C17.1371 34.4626 16.8 33.6487 16.8 32.8V20C16.8 19.1513 17.1371 18.3374 17.7373 17.7373C18.3374 17.1371 19.1513 16.8 20 16.8H32.8C33.6487 16.8 34.4626 17.1371 35.0627 17.7373C35.6629 18.3374 36 19.1513 36 20ZM13.6 10.4C12.7513 10.4 11.9374 10.7371 11.3373 11.3373C10.7371 11.9374 10.4 12.7513 10.4 13.6V23.2C10.4 24.0487 10.7371 24.8626 11.3373 25.4627C11.9374 26.0629 12.7513 26.4 13.6 26.4H14.4V20C14.4018 18.5153 14.9923 17.092 16.0422 16.0422C17.092 14.9923 18.5153 14.4018 20 14.4H26.4V13.6C26.4 12.7513 26.0629 11.9374 25.4627 11.3373C24.8626 10.7371 24.0487 10.4 23.2 10.4H13.6ZM7.2 16.8H8V13.6C8.00178 12.1153 8.59235 10.692 9.64217 9.64217C10.692 8.59235 12.1153 8.00178 13.6 8H16.8V7.2C16.8 6.35131 16.4629 5.53737 15.8627 4.93726C15.2626 4.33714 14.4487 4 13.6 4H7.2C6.35131 4 5.53737 4.33714 4.93726 4.93726C4.33714 5.53737 4 6.35131 4 7.2V13.6C4 14.4487 4.33714 15.2626 4.93726 15.8627C5.53737 16.4629 6.35131 16.8 7.2 16.8Z" fill="#002353"/>
<path d="M13.5994 10.4004C12.7507 10.4004 11.9368 10.7375 11.3367 11.3376C10.7366 11.9378 10.3994 12.7517 10.3994 13.6004V23.2004C10.3994 24.0491 10.7366 24.863 11.3367 25.4631C11.9368 26.0632 12.7507 26.4004 13.5994 26.4004H14.3994V20.0004C14.4012 18.5157 14.9918 17.0924 16.0416 16.0426C17.0914 14.9927 18.5147 14.4022 19.9994 14.4004H26.3994V13.6004C26.3994 12.7517 26.0623 11.9378 25.4622 11.3376C24.862 10.7375 24.0481 10.4004 23.1994 10.4004H13.5994Z" fill="#84A5B9"/>
</svg>
