<svg width="192" height="36" viewBox="0 0 192 36" fill="none" xmlns="http://www.w3.org/2000/svg">
<path d="M18 3L22.635 12.39L33 13.905L25.5 21.21L27.27 31.53L18 26.655L8.73 31.53L10.5 21.21L3 13.905L13.365 12.39L18 3Z" fill="#FF7333"/>
<path d="M57 3L61.635 12.39L72 13.905L64.5 21.21L66.27 31.53L57 26.655L47.73 31.53L49.5 21.21L42 13.905L52.365 12.39L57 3Z" fill="#FF7333"/>
<path d="M96 3L100.635 12.39L111 13.905L103.5 21.21L105.27 31.53L96 26.655L86.73 31.53L88.5 21.21L81 13.905L91.365 12.39L96 3Z" fill="#FF7333"/>
<path d="M135 3L139.635 12.39L150 13.905L142.5 21.21L144.27 31.53L135 26.655L125.73 31.53L127.5 21.21L120 13.905L130.365 12.39L135 3Z" fill="#FF7333"/>
<path d="M174 3L178.635 12.39L189 13.905L181.5 21.21L183.27 31.53L174 26.655L164.73 31.53L166.5 21.21L159 13.905L169.365 12.39L174 3Z" fill="#FF7333"/>
</svg>
