<svg width="40" height="40" viewBox="0 0 40 40" fill="none" xmlns="http://www.w3.org/2000/svg">
<rect x="8" y="15.5" width="25" height="15" fill="white"/>
<path d="M37 7.72093V9.63953H3V7.72093C3 5.38791 4.94512 3.5 7.34884 3.5H32.6512C35.0549 3.5 37 5.38791 37 7.72093ZM37 11.9419V32.2791C37 34.6121 35.0549 36.5 32.6512 36.5H7.34884C4.94512 36.5 3 34.6121 3 32.2791V11.9419H37ZM11.9191 23.0698L15.0344 20.046C15.5088 19.6009 15.5088 18.8642 15.0344 18.4191C14.5758 17.974 13.8326 17.974 13.3581 18.4191L9.40465 22.2563C8.94605 22.7014 8.94605 23.4381 9.40465 23.8833L13.3581 27.7205C13.5953 27.9507 13.8958 28.0581 14.1963 28.0581C14.4967 28.0581 14.813 27.9507 15.0344 27.7205C15.5088 27.2754 15.5088 26.5386 15.0344 26.0935L11.9191 23.0698ZM22.2772 15.8251C21.6446 15.6409 20.9963 15.994 20.8065 16.5926L16.9321 28.8716C16.7423 29.4856 17.0902 30.1302 17.7228 30.3144C17.8335 30.3451 17.9442 30.3605 18.0707 30.3605C18.5767 30.3605 19.0512 30.0381 19.1935 29.547L23.0679 17.2679C23.2577 16.654 22.9098 16.0093 22.2772 15.8251ZM30.5954 22.2563L26.6419 18.4191C26.1674 17.974 25.4242 17.974 24.9656 18.4191C24.4912 18.8642 24.4912 19.6009 24.9656 20.046L28.0809 23.0698L24.9656 26.0935C24.4912 26.5386 24.4912 27.2754 24.9656 27.7205C25.187 27.9507 25.4874 28.0581 25.8037 28.0581C26.12 28.0581 26.4047 27.9507 26.6419 27.7205L30.5954 23.8833C31.054 23.4381 31.054 22.7014 30.5954 22.2563Z" fill="#84A5B9"/>
<path d="M37 7.72093V9.63953H3V7.72093C3 5.38791 4.94512 3.5 7.34884 3.5H32.6512C35.0549 3.5 37 5.38791 37 7.72093Z" fill="#002353"/>
</svg>
