<svg width="40" height="40" viewBox="0 0 40 40" fill="none" xmlns="http://www.w3.org/2000/svg">
<path d="M36.4257 25.206L34.4773 24.0127L21.6879 31.7335C21.1713 32.0477 20.5852 32.2131 19.9887 32.2131C19.3921 32.2131 18.8061 32.0477 18.2895 31.7335L5.52271 24.0366L3.57428 25.2299C3.39994 25.334 3.25493 25.4849 3.15404 25.6673C3.05316 25.8497 3 26.057 3 26.2681C3 26.4792 3.05316 26.6865 3.15404 26.8689C3.25493 27.0512 3.39994 27.2022 3.57428 27.3063L19.4336 36.8528C19.6058 36.9576 19.8012 37.0127 20 37.0127C20.1988 37.0127 20.3942 36.9576 20.5664 36.8528L36.4257 27.3063C36.6001 27.2022 36.7451 27.0512 36.846 26.8689C36.9468 26.6865 37 26.4792 37 26.2681C37 26.057 36.9468 25.8497 36.846 25.6673C36.7451 25.4849 36.6001 25.334 36.4257 25.2299V25.206Z" fill="#A0BAC9"/>
<path d="M36.4257 18.206L34.4773 17.0127L21.6879 24.7335C21.1713 25.0477 20.5852 25.2131 19.9887 25.2131C19.3921 25.2131 18.8061 25.0477 18.2895 24.7335L5.52271 17.0366L3.57428 18.2299C3.39994 18.334 3.25493 18.4849 3.15404 18.6673C3.05316 18.8497 3 19.057 3 19.2681C3 19.4792 3.05316 19.6865 3.15404 19.8689C3.25493 20.0512 3.39994 20.2022 3.57428 20.3063L19.4336 29.8528C19.6058 29.9576 19.8012 30.0127 20 30.0127C20.1988 30.0127 20.3942 29.9576 20.5664 29.8528L36.4257 20.3063C36.6001 20.2022 36.7451 20.0512 36.846 19.8689C36.9468 19.6865 37 19.4792 37 19.2681C37 19.057 36.9468 18.8497 36.846 18.6673C36.7451 18.4849 36.6001 18.334 36.4257 18.2299V18.206Z" fill="#84A5B9"/>
<path d="M3.57428 13.9789L19.4336 22.8639C19.6058 22.9614 19.8012 23.0127 20 23.0127C20.1988 23.0127 20.3942 22.9614 20.5664 22.8639L36.4257 13.9789C36.6001 13.8821 36.7451 13.7416 36.846 13.5719C36.9468 13.4021 37 13.2092 37 13.0127C37 12.8162 36.9468 12.6233 36.846 12.4535C36.7451 12.2838 36.6001 12.1433 36.4257 12.0465L20.5664 3.16149C20.3942 3.06401 20.1988 3.0127 20 3.0127C19.8012 3.0127 19.6058 3.06401 19.4336 3.16149L3.57428 12.0465C3.39994 12.1433 3.25493 12.2838 3.15404 12.4535C3.05316 12.6233 3 12.8162 3 13.0127C3 13.2092 3.05316 13.4021 3.15404 13.5719C3.25493 13.7416 3.39994 13.8821 3.57428 13.9789ZM24.248 10.9692L25.8453 9.40318L28.734 12.2242C28.8401 12.3274 28.9244 12.4502 28.9819 12.5856C29.0394 12.7209 29.069 12.8661 29.069 13.0127C29.069 13.1593 29.0394 13.3045 28.9819 13.4398C28.9244 13.5752 28.8401 13.698 28.734 13.8012L25.8453 16.6222L24.248 15.0562L26.3324 13.0127L24.248 10.9692ZM20 8.40362L22.2656 8.93672L20 17.6218L17.8024 17.0887L20 8.40362ZM11.266 12.2242L14.1547 9.40318L15.752 10.9692L13.6676 13.0127L15.752 15.0562L14.1547 16.6222L11.266 13.8012C11.1599 13.698 11.0756 13.5752 11.0181 13.4398C10.9606 13.3045 10.931 13.1593 10.931 13.0127C10.931 12.8661 10.9606 12.7209 11.0181 12.5856C11.0756 12.4502 11.1599 12.3274 11.266 12.2242Z" fill="#002353"/>
</svg>
