<svg width="40" height="40" viewBox="0 0 40 40" fill="none" xmlns="http://www.w3.org/2000/svg">
<path d="M35.0567 13.1202C35.4462 11.9516 35.6412 10.7402 35.6412 9.48548C35.6412 7.81235 35.273 6.24015 34.5376 4.76904C32.9946 4.76904 31.6316 5.05055 30.4486 5.61288C29.2662 6.17537 27.9177 7.04792 26.4038 8.23055C24.5002 7.76908 22.4804 7.53834 20.3462 7.53834C18.0095 7.53834 15.7811 7.7909 13.6611 8.29565C12.118 7.08399 10.755 6.19363 9.57227 5.62379C8.38956 5.05396 7.01946 4.76912 5.46166 4.76912C4.72611 6.24023 4.35837 7.8125 4.35837 9.48555C4.35837 10.7549 4.55296 11.9808 4.94245 13.1633C2.98069 15.4568 2 18.3124 2 21.7307C2 24.731 2.44693 27.1177 3.34131 28.892C3.81741 29.8291 4.4374 30.6585 5.2019 31.3799C5.9661 32.1008 6.83874 32.6854 7.81958 33.1326C8.80057 33.5794 9.78831 33.951 10.7836 34.2464C11.7789 34.5419 12.8785 34.7585 14.0829 34.895C15.2872 35.0326 16.3509 35.1226 17.2739 35.1662C18.1969 35.2089 19.2208 35.2308 20.3461 35.2308C21.6728 35.2308 22.8767 35.1981 23.959 35.1336C25.0408 35.0688 26.2773 34.9098 27.6693 34.658C29.061 34.4055 30.2871 34.0627 31.3474 33.6301C32.4075 33.1976 33.4246 32.5772 34.3981 31.7698C35.3716 30.9618 36.1321 30.0028 36.6805 28.8921C37.5598 27.1036 37.9999 24.7163 37.9999 21.7308C37.9994 18.298 37.0186 15.4279 35.0567 13.1202ZM32.4615 28.8591C31.9998 29.8041 31.4156 30.5462 30.709 31.0876C30.0021 31.6286 29.1224 32.0611 28.0697 32.386C27.0164 32.7104 26.0073 32.9231 25.0408 33.0237C24.0741 33.1248 23 33.1751 21.8169 33.1751H18.1823C16.9997 33.1751 15.9249 33.1248 14.9587 33.0237C13.9924 32.9231 12.9829 32.7104 11.9299 32.386C10.8773 32.0611 9.9976 31.6286 9.29069 31.0876C8.58377 30.5461 7.9997 29.8041 7.53815 28.8591C7.07667 27.9141 6.84586 26.8074 6.84586 25.5383C6.84586 23.807 7.34348 22.3357 8.33879 21.1247C9.33403 19.9131 10.6825 19.3075 12.3842 19.3075C13.0047 19.3075 14.4109 19.4588 16.6032 19.7617C17.6272 19.9203 18.7595 19.9997 19.9997 19.9997C21.2403 19.9997 22.3725 19.9206 23.3963 19.7617C25.6178 19.4587 27.0236 19.3075 27.6153 19.3075C29.317 19.3075 30.6654 19.9134 31.6607 21.1247C32.656 22.3362 33.1533 23.807 33.1533 25.5383C33.1533 26.8076 32.9225 27.9149 32.4615 28.8591Z" fill="#A0BAC9"/>
<path d="M14.6455 22.1197C14.2055 21.6291 13.6829 21.3838 13.077 21.3838C12.4709 21.3838 11.9482 21.6294 11.5084 22.1197C11.0687 22.6098 10.7584 23.1581 10.5782 23.7632C10.3976 24.3696 10.3076 24.9608 10.3076 25.538C10.3076 26.1147 10.3979 26.706 10.5782 27.3123C10.7582 27.9178 11.0683 28.4657 11.5084 28.9558C11.9485 29.4464 12.4709 29.6918 13.077 29.6918C13.6829 29.6918 14.2057 29.4459 14.6455 28.9558C15.0853 28.4656 15.3954 27.9178 15.5756 27.3123C15.756 26.706 15.8462 26.1147 15.8462 25.538C15.8462 24.9613 15.7562 24.3696 15.5756 23.7632C15.3954 23.1583 15.0855 22.6103 14.6455 22.1197Z" fill="#002353"/>
<path d="M28.4916 22.1197C28.0518 21.6291 27.529 21.3838 26.9233 21.3838C26.3177 21.3838 25.7947 21.6294 25.3546 22.1197C24.9148 22.6098 24.6048 23.1581 24.4248 23.7632C24.2441 24.3696 24.1538 24.9608 24.1538 25.538C24.1538 26.1147 24.2441 26.706 24.4248 27.3123C24.6048 27.9178 24.9149 28.4657 25.3546 28.9558C25.7947 29.4464 26.3177 29.6918 26.9233 29.6918C27.529 29.6918 28.0519 29.4459 28.4916 28.9558C28.9312 28.4656 29.2415 27.9178 29.422 27.3123C29.6022 26.706 29.6924 26.1147 29.6924 25.538C29.6924 24.9613 29.6022 24.3696 29.422 23.7632C29.2415 23.1583 28.9312 22.6103 28.4916 22.1197Z" fill="#002353"/>
</svg>
