<svg width="40" height="40" viewBox="0 0 40 40" fill="none" xmlns="http://www.w3.org/2000/svg">
<g clip-path="url(#clip0_315_211)">
<path d="M21.8181 0.000404125H18.1818C17.6798 0.000404125 17.2728 0.407374 17.2728 0.909408V1.81841H8.01836C7.51633 0.398471 5.95808 -0.345838 4.53814 0.156197C3.1182 0.658232 2.37389 2.21648 2.87592 3.63642C3.37796 5.05636 4.93621 5.80067 6.35615 5.29864C7.13289 5.02393 7.74366 4.41316 8.01836 3.63642H11.6C5.79116 7.27276 4.54577 15.2179 4.54577 15.3269C4.47137 15.8236 4.81348 16.2862 5.30979 16.3609C5.31551 16.3618 5.32156 16.3625 5.3276 16.3634H5.45477C5.91102 16.3679 6.29987 16.0334 6.36378 15.5816C6.36378 15.4544 8.06383 4.36356 17.2728 3.63642V4.54543C17.2728 5.04746 17.6798 5.45443 18.1818 5.45443H21.8181C22.3202 5.45443 22.7271 5.04746 22.7271 4.54543V3.63642C31.1361 4.3909 33.6361 15.4544 33.6361 15.5997C33.7083 16.0442 34.0949 16.3692 34.5451 16.3634H34.7359C35.2294 16.2712 35.5546 15.7962 35.4624 15.3028C35.4599 15.2897 35.4573 15.2767 35.4541 15.2637C35.4541 15.1635 33.6361 7.27307 28.018 3.63674H31.9815C32.4836 5.05668 34.0418 5.80099 35.4618 5.29895C36.8817 4.79692 37.626 3.23867 37.124 1.81873C36.622 0.398789 35.0637 -0.34552 33.6438 0.156515C32.867 0.431219 32.2563 1.04199 31.9815 1.81873H22.7271V0.909726C22.7271 0.407373 22.3202 0.000404125 21.8181 0.000404125Z" fill="#A0BAC9"/>
<path d="M20.0003 25.4542C20.5023 25.4542 20.9093 25.0473 20.9093 24.5452C20.9093 24.0432 20.5023 23.6362 20.0003 23.6362C19.4983 23.6362 19.0913 24.0432 19.0913 24.5452C19.0913 25.0473 19.4983 25.4542 20.0003 25.4542Z" fill="#002353"/>
<path d="M12.082 25.191C13.8132 27.0274 14.967 29.3315 15.4001 31.8182H24.5998C25.0329 29.3319 26.1867 27.0274 27.9179 25.191C28.1795 24.928 28.2552 24.5322 28.1086 24.191L20.9091 7.09131V21.9819C22.329 22.484 23.0734 24.0422 22.5713 25.4622C22.0693 26.8821 20.511 27.6264 19.0911 27.1244C17.6712 26.6223 16.9268 25.0641 17.4289 23.6442C17.7036 22.8674 18.3144 22.2566 19.0911 21.9819V7.09131L11.8912 24.191C11.7447 24.5322 11.8203 24.928 12.082 25.191Z" fill="#002353"/>
<path d="M13.6362 39.0906C13.6362 39.5926 14.0432 39.9996 14.5452 39.9996H25.4542C25.9563 39.9996 26.3632 39.5926 26.3632 39.0906V33.6362H13.6362V39.0906Z" fill="#A0BAC9"/>
</g>
<defs>
<clipPath id="clip0_315_211">
<rect width="40" height="40" fill="white"/>
</clipPath>
</defs>
</svg>
